<?xml version="1.0" standalone="no"?>
<!DOCTYPE svg PUBLIC "-//W3C//DTD SVG 20010904//EN"
 "http://www.w3.org/TR/2001/REC-SVG-20010904/DTD/svg10.dtd">
<svg version="1.0" xmlns="http://www.w3.org/2000/svg"
 width="400.000000pt" height="400.000000pt" viewBox="0 0 400.000000 400.000000"
 preserveAspectRatio="xMidYMid meet">
<metadata>
Created by potrace 1.14, written by Peter Selinger 2001-2017
</metadata>
<g transform="translate(0.000000,400.000000) scale(0.100000,-0.100000)"
fill="#000000" stroke="none">
<path d="M0 2000 l0 -2000 2000 0 2000 0 0 2000 0 2000 -2000 0 -2000 0 0
-2000z m1940 1430 c1388 -16 1968 -25 1860 -28 -58 -1 -109 -7 -114 -12 -6 -6
-20 -10 -31 -10 -33 0 -26 -29 9 -38 22 -6 30 -14 28 -26 -2 -10 5 -24 15 -32
21 -16 37 -18 28 -4 -9 14 7 12 49 -5 20 -9 34 -20 31 -25 -8 -12 65 -42 88
-36 13 3 21 -4 29 -22 9 -22 12 -23 15 -9 3 9 10 17 17 17 35 0 25 -304 -16
-559 l-12 -74 -1896 7 c-1042 4 -1912 10 -1932 13 -25 4 -36 10 -36 22 1 9 -7
89 -16 178 -23 214 -32 399 -26 508 3 50 3 92 -1 95 -3 3 -8 15 -11 28 l-6 22
571 0 c315 0 925 -5 1357 -10z m1778 -986 c111 -4 202 -9 202 -13 0 -4 -16
-92 -35 -195 -19 -104 -42 -261 -50 -350 -9 -89 -18 -167 -20 -173 -4 -10
-377 -13 -1823 -13 l-1819 0 -7 113 c-10 166 -25 313 -50 484 -13 84 -20 156
-17 159 7 7 3346 -4 3619 -12z m74 -934 c-4 -85 -26 -172 -48 -191 -9 -8 -13
-21 -10 -35 5 -17 -1 -28 -23 -43 -29 -21 -32 -48 -10 -77 13 -16 -2 -55 -20
-53 -23 3 -104 -36 -126 -61 -10 -11 -23 -20 -29 -19 -24 3 -34 -2 -60 -27
-14 -15 -26 -23 -26 -19 0 5 -8 1 -17 -8 -10 -8 -29 -17 -43 -20 l-25 -4 27
-2 c42 -2 42 -18 0 -24 -20 -4 -719 -8 -1552 -10 -833 -3 -1474 -2 -1425 2 50
4 84 8 78 9 -27 4 -11 22 19 22 17 0 29 3 26 6 -3 3 -21 5 -39 6 -19 0 -51 11
-72 24 -20 14 -58 27 -83 31 -37 5 -48 11 -56 32 -20 51 -52 218 -67 356 -6
55 -13 117 -16 137 l-5 38 307 3 c170 1 981 2 1803 2 l1495 0 -3 -75z m-322
-576 c0 -2 -7 -4 -15 -4 -8 0 -15 4 -15 10 0 5 7 7 15 4 8 -4 15 -8 15 -10z"/>
<path d="M3587 3365 c-4 -8 -2 -17 3 -20 6 -4 10 3 10 14 0 25 -6 27 -13 6z"/>
<path d="M490 3188 c1 -46 45 -397 50 -400 3 -2 47 -2 98 0 l92 3 0 30 0 29
-69 0 c-82 0 -74 -15 -91 180 -17 193 -16 190 -50 190 -27 0 -30 -3 -30 -32z"/>
<path d="M1064 3168 c3 -29 8 -126 12 -215 l7 -163 29 0 29 0 -7 203 c-3 111
-7 208 -10 215 -2 6 -18 12 -35 12 l-31 0 6 -52z"/>
<path d="M1477 3212 c-3 -4 -3 -100 0 -215 l6 -207 28 0 29 0 0 123 1 122 65
-122 c60 -112 68 -123 93 -123 27 0 28 2 27 43 -1 23 -3 120 -4 215 l-2 173
-27 -3 -28 -3 0 -128 c0 -70 -2 -127 -5 -127 -3 0 -36 59 -74 130 -49 93 -74
130 -87 130 -10 0 -20 -3 -22 -8z"/>
<path d="M1920 2995 l0 -215 38 0 c127 0 222 94 222 220 0 125 -89 210 -219
210 l-41 0 0 -215z m138 119 c57 -37 78 -122 46 -190 -18 -38 -69 -74 -105
-74 l-24 0 3 146 3 146 27 -7 c15 -3 37 -13 50 -21z"/>
<path d="M2407 3043 c-4 -87 -7 -184 -7 -215 0 -54 1 -58 24 -58 31 0 36 20
36 142 0 53 4 99 8 102 5 3 35 -51 67 -119 48 -105 62 -125 80 -125 21 0 22 5
29 118 3 64 9 161 13 215 l6 97 -30 0 -30 0 -7 -77 c-3 -42 -6 -99 -6 -127 0
-29 -4 -46 -9 -41 -5 6 -31 62 -59 125 -47 106 -53 115 -80 118 l-29 3 -6
-158z"/>
<path d="M2916 3153 c-3 -26 -8 -106 -11 -178 -3 -71 -8 -147 -11 -167 l-6
-38 91 0 91 0 0 30 c0 30 -1 30 -55 30 l-55 0 0 40 0 40 60 0 60 0 0 30 c0 30
-1 30 -55 30 l-55 0 0 68 c0 37 4 72 8 78 4 5 32 10 62 10 l55 -1 3 36 3 37
-89 1 -90 2 -6 -48z"/>
<path d="M3392 3191 c-9 -5 -18 -59 -27 -167 -8 -87 -16 -180 -19 -206 -5 -47
-5 -48 23 -48 26 0 29 4 35 45 6 39 11 45 31 45 18 0 27 -9 41 -45 14 -39 21
-45 45 -45 16 0 29 2 29 3 0 2 -9 29 -19 60 -19 55 -19 55 1 74 29 25 58 91
58 132 0 47 -33 113 -67 133 -33 19 -113 31 -131 19z m83 -71 c38 -14 59 -70
45 -120 -11 -42 -51 -80 -83 -80 -18 0 -19 4 -13 73 8 80 16 137 21 137 2 0
15 -4 30 -10z"/>
<path d="M3888 3193 c6 -2 18 -2 25 0 6 3 1 5 -13 5 -14 0 -19 -2 -12 -5z"/>
<path d="M1672 2164 l9 -57 -42 -35 c-37 -32 -39 -37 -23 -43 11 -4 38 -8 61
-8 41 -1 44 -3 68 -51 14 -27 27 -50 30 -50 3 0 16 23 30 50 24 46 28 50 63
50 20 0 47 3 60 6 21 6 20 8 -22 45 l-44 39 14 52 c7 29 12 53 10 55 -2 2 -28
-8 -60 -23 l-56 -26 -44 26 c-25 14 -49 26 -54 26 -5 0 -5 -22 0 -56z"/>
<path d="M2116 2163 l6 -58 -42 -34 c-53 -42 -49 -47 35 -50 44 -1 46 -2 67
-51 12 -27 24 -50 27 -50 3 0 18 23 33 50 27 48 30 50 70 51 78 1 84 10 34 51
l-44 38 16 50 c9 27 13 52 10 55 -3 4 -29 -5 -57 -19 l-51 -26 -50 25 c-27 14
-52 25 -55 25 -2 0 -2 -26 1 -57z"/>
<path d="M1833 1407 c3 -7 21 -76 41 -153 45 -174 53 -192 70 -173 7 8 22 47
35 87 12 41 25 72 27 69 3 -2 14 -37 25 -78 22 -81 35 -102 49 -80 8 14 100
319 100 334 0 4 -10 7 -23 7 -19 0 -26 -12 -52 -86 -16 -47 -33 -88 -36 -90
-3 -2 -17 32 -30 76 -13 44 -27 80 -30 80 -4 0 -19 -36 -35 -80 -15 -44 -31
-77 -35 -73 -3 5 -19 45 -34 91 -24 74 -29 82 -52 82 -17 0 -23 -4 -20 -13z"/>
<path d="M2337 1413 c-3 -4 -6 -82 -8 -173 l-4 -165 80 0 c79 0 80 0 80 25 0
23 -4 25 -53 28 -51 3 -53 4 -50 29 3 24 7 26 53 27 47 1 50 3 53 29 3 27 2
27 -52 27 -63 0 -61 -2 -50 84 l7 47 51 -3 c49 -3 51 -2 51 22 0 24 -2 25 -77
28 -42 2 -78 -1 -81 -5z"/>
<path d="M2747 1413 c-3 -5 -7 -62 -11 -128 -4 -66 -9 -138 -12 -161 -5 -34
-3 -42 13 -46 31 -8 43 2 43 38 0 29 3 34 23 34 19 0 28 -9 40 -40 12 -32 20
-40 41 -40 31 0 31 -1 9 60 l-17 48 27 32 c54 64 29 163 -49 196 -36 15 -100
19 -107 7z m108 -68 c27 -27 33 -79 12 -106 -13 -18 -50 -39 -66 -39 -12 0
-16 152 -4 163 13 13 34 7 58 -18z"/>
<path d="M3150 1409 c0 -5 14 -62 31 -125 19 -74 29 -132 27 -162 -3 -46 -3
-47 27 -47 28 0 30 3 33 40 2 21 30 97 63 168 32 71 59 131 59 133 0 2 -12 4
-26 4 -23 0 -30 -11 -67 -90 -22 -49 -44 -90 -48 -90 -3 0 -9 15 -12 33 -3 17
-12 58 -22 90 -14 49 -20 57 -41 57 -13 0 -24 -5 -24 -11z"/>
<path d="M583 1368 c4 -24 9 -83 12 -133 3 -49 8 -109 11 -132 l5 -43 52 0
c70 0 123 16 142 43 34 49 8 145 -44 162 -16 5 -18 11 -11 34 10 38 -12 88
-45 101 -15 6 -49 10 -77 10 l-50 0 5 -42z m109 -33 c8 -19 8 -28 -2 -40 -26
-31 -49 -8 -50 48 0 27 39 21 52 -8z m46 -111 c15 -10 22 -25 22 -48 0 -38
-14 -53 -58 -62 -36 -7 -37 -5 -47 74 l-6 52 33 0 c19 0 44 -7 56 -16z"/>
<path d="M1035 1248 c4 -90 8 -169 10 -175 3 -7 16 -13 30 -13 23 0 25 4 25
40 0 33 3 40 20 40 12 0 29 -15 44 -39 21 -32 29 -38 51 -34 l25 5 -25 45 -25
45 23 32 c15 22 22 45 21 77 -1 83 -65 139 -159 139 l-47 0 7 -162z m120 87
c36 -35 35 -96 -1 -124 -15 -12 -35 -21 -45 -21 -17 0 -19 9 -19 85 0 79 1 85
20 85 12 0 32 -11 45 -25z"/>
<path d="M1482 1243 l3 -168 83 -3 83 -3 -3 28 c-3 26 -5 27 -55 24 l-53 -2 0
30 c0 31 0 31 56 31 54 0 55 0 52 28 -3 25 -6 27 -53 27 l-50 0 -3 62 -3 62
53 3 c46 3 53 6 56 26 3 21 1 22 -83 22 l-85 0 2 -167z"/>
</g>
</svg>
